<svg xmlns="http://www.w3.org/2000/svg" width="19" height="27" viewBox="0 0 19 27"><g><g><path fill="#a0a0a0" d="M13.377 7.958l5.115 4.608s1.082 1.152.197 2.094c-.886.944-1.968 0-1.968 0l-2.557-2.303s-1.303-.707-1.18.837c.024 1.362 0 .42 0 2.305 0 1.884 2.237 2.696 1.77 5.655-.393 2.486-2.36 5.236-2.36 5.236s-.886 1.021-1.575.419c-.688-.603 0-1.886 0-1.886s.296-1.23.394-2.932c.098-1.701-.688-2.513-1.377-2.513-.689 0 .101.012-.59.012-.692 0-1.483.812-1.384 2.515.099 1.704.396 2.936.396 2.936s.691 1.285 0 1.887c-.692.603-1.582-.419-1.582-.419S4.7 23.657 4.305 21.167c-.47-2.962 1.778-3.774 1.778-5.66 0-1.888-.024-.945 0-2.307.124-1.546-1.186-.839-1.186-.839l-2.569 2.306s-1.087.944-1.977 0c-.889-.943.198-2.096.198-2.096l5.14-4.613s.889-1.047 1.59-1.047c1.241 0 1.02.838 2.163.838.812 0 1.107-.838 2.165-.838.836 0 1.77 1.047 1.77 1.047zM9.421 0c1.735 0 3.141 1.497 3.141 3.344 0 1.847-1.406 3.344-3.14 3.344-1.735 0-3.141-1.497-3.141-3.344C6.28 1.496 7.687 0 9.42 0z"/></g></g></svg>