<svg xmlns="http://www.w3.org/2000/svg" width="14" height="15" viewBox="0 0 14 15"><g><g><path fill="#6a6a6a" d="M11.117 3.43L8.508.587c.535-.568 1.767-.87 2.356-.226l.457.498c.588.643.314 1.985-.204 2.571zm-.87.953L5.08 10.025 2.518 7.23c1.375-1.52 3.832-4.248 5.126-5.685zm-6.049 6.606c-.008.009-1.687.517-1.687.517s-1.11.48-1.391.195l-.113-.123c-.248-.24.18-1.557.18-1.557l.456-1.825.008-.009 2.56 2.789-.013.013zM.665 13.656h12.67c.367 0 .665.297.665.664v.015a.665.665 0 0 1-.665.664H.665A.665.665 0 0 1 0 14.335v-.015c0-.367.297-.664.665-.664z"/></g></g></svg>