<svg xmlns="http://www.w3.org/2000/svg" width="14" height="27" viewBox="0 0 14 27"><g><g><path fill="#fff" d="M13.461 15.511c-.482.26-1.071.053-1.314-.462l-1.718-3.595a.351.351 0 0 0-.086-.18l-.016-.033-.01.008a.309.309 0 0 0-.206-.08.333.333 0 0 0-.324.343c0 .03.004.058.011.086l-.016.011c.992 2.521 3.375 6.735 3.375 7.578 0 .32-.29.685-.648.685H9.592v5.962C9.592 26.478 9.1 27 8.49 27c-.608 0-1.101-.521-1.101-1.165v-5.962H6.61v5.962c0 .644-.494 1.165-1.102 1.165-.609 0-1.102-.521-1.102-1.165v-5.962H1.491c-.359 0-.649-.325-.649-.685 0-.848 2.165-4.53 3.371-7.58l-.012-.01a.368.368 0 0 0 .012-.085.334.334 0 0 0-.324-.342c-.079 0-.15.03-.206.08l-.036-.025-1.794 3.756c-.244.515-.832.721-1.315.462-.482-.26-.676-.887-.433-1.401l3.292-6.89a1.04 1.04 0 0 1 .19-.277c.366-.702 1.142-1.188 1.922-1.188h.622c-1.113-.374-1.918-1.475-1.918-2.775 0-1.609 1.233-2.913 2.754-2.913C8.49 0 9.722 1.303 9.722 2.912c0 1.3-.806 2.4-1.919 2.775h.688c.834 0 1.664.556 1.992 1.338.045.059.086.124.12.195l3.291 6.89c.244.515.05 1.142-.433 1.401z"/></g></g></svg>