<svg xmlns="http://www.w3.org/2000/svg" width="8" height="16" viewBox="0 0 8 16"><g><g opacity=".7"><path fill="#6c6c6c" d="M5.484 0C6.874 0 8 1.117 8 2.5c0 1.38-1.127 2.499-2.516 2.499a2.508 2.508 0 0 1-2.516-2.5c0-1.38 1.127-2.5 2.516-2.5zM.121 7.19s1.165-1.146 3.287-1.146 3.078 1.399 3.078 2.814c0 1.416-1.756 3.97-1.826 4.534-.148.93.574.887.574.887s.672-.026 1.043-.209c.372-.182.946.326.626.73-.32.403-1.786 1.198-3.182 1.198S.539 15.39.539 13.236c0-1.91 1.321-2.927 1.773-4.586.326-.931-.626-.834-.626-.834s-.632.046-.939.156c-.306.111-1.036-.175-.626-.782z"/></g></g></svg>