<svg xmlns="http://www.w3.org/2000/svg" width="11" height="27" viewBox="0 0 11 27"><g><g><path fill="#fff" d="M9.311 18.745l-.675 6.867c0 .766-.61 1.387-1.364 1.387H3.818a1.375 1.375 0 0 1-1.364-1.387l-.674-6.855C.78 18.647 0 17.783 0 16.735V8.783C0 7.66.895 6.75 2 6.75c.932.056 1.097.206 1.784.832.818.907 2.509.912 3.34 0C7.92 6.761 8.517 6.75 9 6.75c1.104 0 2 .911 2 2.034v7.952a2.024 2.024 0 0 1-1.689 2.01zM5.545 6.287c-1.707 0-3.09-1.408-3.09-3.144 0-1.736 1.383-3.144 3.09-3.144 1.707 0 3.091 1.408 3.091 3.144 0 1.736-1.384 3.144-3.09 3.144z"/></g></g></svg>