<svg xmlns="http://www.w3.org/2000/svg" width="11" height="11" viewBox="0 0 11 11"><g><g><path fill="#a0a0a0" d="M.75 10.226a2.606 2.606 0 0 1 0-3.69l2.362-2.358c.903-.9 2.3-1.003 3.318-.311a.675.675 0 0 1 .209 1.098l-.034.034a.679.679 0 0 1-1.02-.071 1.236 1.236 0 0 0-1.497.19L1.692 7.51a1.23 1.23 0 0 0 0 1.743 1.236 1.236 0 0 0 1.746 0l.599-.599.034-.034a.679.679 0 0 1 .959 0l.034.034a.675.675 0 0 1 0 .957l-.034.035-.034.033-.548.547a2.618 2.618 0 0 1-3.698 0zm3.804-3.104a.676.676 0 0 1-.209-1.098l.034-.034a.679.679 0 0 1 1.02.07 1.236 1.236 0 0 0 1.497-.19l2.397-2.392a1.23 1.23 0 0 0 0-1.742 1.236 1.236 0 0 0-1.747 0l-.599.597-.034.035a.679.679 0 0 1-.959 0l-.034-.035a.675.675 0 0 1 0-.956l.034-.034.035-.034.547-.547a2.618 2.618 0 0 1 3.698 0 2.605 2.605 0 0 1 0 3.69L7.872 6.809a2.618 2.618 0 0 1-3.318.313z"/></g></g></svg>