<svg xmlns="http://www.w3.org/2000/svg" width="32" height="11" viewBox="0 0 32 11"><g><g><path d="M31.992.68s-.04.424-.29.836c-.152.237-.338.394-.338.394s-1.8 1.782-1.814 1.778c-.276.2-.206.325-.206.325l1.097 5.425c.125.736-.51.921-.487.907l-.425.11c-.28.074-.382-.177-.382-.177S27.312 6.68 27.213 6.47c-.098-.21-.257-.054-.257-.054s-1.696 1.48-2.042 1.818c-.345.339-.273.391-.273.391s-.046-.007.3.625c.348.632.067.855.067.855l-.269.264c-.269.263-.613-.074-.613-.074L21.938 8.15c-.362-.355-.176-.502-.176-.502s-.033.016.27-.327c.305-.341.59-.148.59-.148l.958.348s1.812-2.083 2.06-2.328c.25-.245-.019-.348-.019-.348s-2.91-1.65-3.526-1.878c-.616-.227-.3-.624-.3-.624l.474-.59c.308-.31.492-.175.492-.175s4.876 1.035 5.142 1.09c.267.054.461-.208.461-.208l1.78-1.746c.303-.296.533-.4.533-.4s.299-.22.658-.277c.786-.227.657.644.657.644zM18.758 6.34c.066.233.112.475.112.732 0 1.423-1.087 2.576-2.428 2.576-1.34 0-2.428-1.153-2.428-2.576 0-.205.028-.401.07-.592l-2.208-1.36c-.442.64-1.147 1.059-1.948 1.059-.817 0-1.535-.433-1.975-1.092l-2.66 1.64c.023.146.043.293.043.445 0 1.562-1.194 2.828-2.668 2.828C1.194 10 0 8.733 0 7.171c0-1.562 1.194-2.828 2.668-2.828.801 0 1.511.382 2 .974l2.833-1.746C7.511 2.149 8.593.999 9.928.999c1.34 0 2.427 1.16 2.427 2.59l-.002.029 2.487 1.53a2.332 2.332 0 0 1 1.602-.654 2.32 2.32 0 0 1 1.496.561l1.038-.716a.576.576 0 0 1 .813.232l.134.248a.657.657 0 0 1-.218.866zM2.656 5.299c-.963 0-1.743.832-1.743 1.86 0 1.027.78 1.86 1.743 1.86.962 0 1.743-.833 1.743-1.86 0-1.028-.78-1.86-1.743-1.86z"/></g></g></svg>