<svg xmlns="http://www.w3.org/2000/svg" width="24" height="8" viewBox="0 0 24 8"><g><g><path d="M.009.684S-.021.42.38.42h1.91l.318-.315s.051-.106.37-.106h9.468s.258.01.371.106c.114.096.433.315.433.315h7.55s.468-.052.556.158c.033.079.084.158.135.28 0 0 .374-.119.685-.112.31.008 1.087.153 1.318.579.345.766.398.974.421 1.105.034.215.126.487.065.567a.52.52 0 0 1-.412.141c-.218-.03-.41-.388-.888-1.644-.092-.365-.703-.214-.703-.214l-.337-.025.026.06s.246.266.928 3.421c.113.792.062 1.632.062 1.632s.061.263-.248.263h-2.413s-.147-1.526-1.98-1.526-1.918 1.526-1.918 1.526h-7.55s-.061-1.526-1.98-1.526C4.72 5.105 4.65 6.63 4.65 6.63S2.538 6.42.566 5.947c-.68-.185-.557-.527-.557-.527zM18.262 3.42c1.653.249 1.804 1.339 2.723 1.422.336.06.905.093.866-.053-.454-2.974-.928-3.474-.928-3.474l-2.66-.158V3.42zm-5.012-.052h4.27V1.105h-4.27zm-5.011 0h4.269V1.105h-4.27zm-5.012 0h4.269V1.105h-4.27zM.752 2.894l1.732.369V1.105H.752zm18.81 3.816c0 .712-.679 1.29-1.516 1.29s-1.516-.578-1.516-1.29c0-.712.679-1.29 1.516-1.29s1.516.578 1.516 1.29zm-11.385 0c0 .712-.68 1.29-1.516 1.29-.838 0-1.516-.578-1.516-1.29 0-.712.678-1.29 1.516-1.29.837 0 1.516.578 1.516 1.29z"/></g></g></svg>