<svg xmlns="http://www.w3.org/2000/svg" width="39" height="28" viewBox="0 0 39 28"><g><g><path fill="#2d2d2d" d="M38.379 19.234l-1.163.312v1.471a.836.836 0 0 1-.836.835h-1.809l-.133 2.895a.836.836 0 0 1-.873.797l-15.986-.737L5.768 27.97a.835.835 0 0 1-1.024-.59l-1.48-5.528h-.645a.836.836 0 0 1-.836-.835V16.33L.03 9.787A.836.836 0 0 1 .62 8.763l1.163-.311v-5.65c0-.46.374-.835.836-.835h23.368l7.244-1.94a.836.836 0 0 1 1.024.59l.362 1.35h1.763c.462 0 .836.374.836.836v8.864l1.754 6.544a.836.836 0 0 1-.591 1.023zM6.078 25.898a.25.25 0 0 0 .307.177l15.763-4.223H4.993zm25.414-13.236h-10.28a.961.961 0 0 0 0 1.922h10.28a.96.96 0 1 0 0-1.922zm.96-2.381c0-.53-.43-.961-.96-.961h-10.28a.961.961 0 0 0 0 1.922h10.28c.53 0 .96-.431.96-.961zm-3.467 5.639h-7.772a.961.961 0 0 0 0 1.922h7.772a.96.96 0 1 0 0-1.922zM15.32 7.398c-.978.007-1.671.836-1.671.836l-.88 1.044-3.847-.918a.65.65 0 0 0-.787.257l-.697.959 3.55 1.813-.933 1.106s-.498-.05-1.337-.167c-.838-.118-.919.083-.919.083s-.345.42-.501.585c-.157.164 0 .25 0 .25l1.922 1.087s1.05 1.76 1.17 1.921c.12.162.25.084.25.084s.308-.229.418-.334c.39-.264.251-1.003.251-1.003l-.167-1.42s.46-.41 1.082-.96l1.842 3.635.954-.698a.654.654 0 0 0 .255-.789l-.945-3.988c.531-.456.97-.826 1.157-.96.76-.529.752-1.504.752-1.504s-.007-.996-.919-.919zm16.17-1.42H21.214a.961.961 0 0 0 0 1.921h10.279a.96.96 0 1 0 0-1.921zm1.123-4.056l-.169.045h.388a.25.25 0 0 0-.219-.045zm-4.008 19.93l-5.7 1.527 9.65.445a.25.25 0 0 0 .262-.238l.08-1.734z"/></g></g></svg>