<svg xmlns="http://www.w3.org/2000/svg" width="29" height="30" viewBox="0 0 29 30"><g><g><path fill="#2d2d2d" d="M28.622 14.999c.209 0 .378.175.378.39v2.188c0 .215-.17.39-.378.39h-1.057v11.641c0 .216-.17.39-.378.39h-25.3a.384.384 0 0 1-.377-.39v-11.64H.377A.384.384 0 0 1 0 17.576v-2.188c0-.215.169-.39.377-.39H1.51V8.983H.377A.384.384 0 0 1 0 8.593V6.405c0-.216.169-.391.377-.391h1.096l1.85-3.75C3.806.954 4.7 0 5.89 0h16.992c1.086 0 2.402.83 2.795 2.265l1.85 3.75h1.095c.209 0 .378.175.378.39v2.189c0 .215-.17.39-.378.39h-1.057v6.016zM10.195 4.413c0-.842-.66-1.523-1.473-1.523-.813 0-1.472.681-1.472 1.523v1.445c0 .043.033.078.075.078h2.794a.077.077 0 0 0 .076-.078zm5.815 0c0-.842-.66-1.523-1.473-1.523-.813 0-1.472.681-1.472 1.523v1.445c0 .043.034.078.075.078h2.794a.077.077 0 0 0 .076-.078zm5.74 0c0-.842-.66-1.523-1.473-1.523-.813 0-1.473.681-1.473 1.523v1.445c0 .043.034.078.076.078h2.794a.077.077 0 0 0 .076-.078zm2.87 4.726a.154.154 0 0 0-.152-.156H4.455a.154.154 0 0 0-.15.156V15h2.977a.398.398 0 0 1-.032-.156v-2.5c0-.216.169-.391.377-.391h2.115c.208 0 .377.175.377.39v2.5a.399.399 0 0 1-.031.157h3.009a.398.398 0 0 1-.032-.156v-2.5c0-.216.169-.391.377-.391h2.115c.208 0 .377.175.377.39v2.5a.399.399 0 0 1-.031.157h3.009a.398.398 0 0 1-.032-.156v-2.5c0-.216.169-.391.377-.391h2.115c.209 0 .378.175.378.39v2.5a.399.399 0 0 1-.032.157h2.901zm0 8.828H4.303v8.828c0 .087.068.157.151.157h8.61v-5.547c0-.216.169-.39.377-.39h2.115c.208 0 .377.174.377.39v5.547h8.534c.084 0 .151-.07.151-.157zm-3.248 6.016h-2.115a.384.384 0 0 1-.377-.39v-2.188c0-.216.169-.39.377-.39h2.115c.209 0 .378.174.378.39v2.188c0 .215-.17.39-.378.39zm-11.63 0H7.627a.384.384 0 0 1-.377-.39v-2.188c0-.216.169-.39.377-.39h2.115c.208 0 .377.174.377.39v2.188c0 .215-.169.39-.377.39z"/></g></g></svg>