<svg xmlns="http://www.w3.org/2000/svg" width="25" height="10" viewBox="0 0 25 10"><g><g><path d="M22.68 9.968H.962l-.293.023s-.665.128-.665-.693V3.551s-.131-.84.946-.84H11.98L10.815.92H5.498a.393.393 0 0 1-.393-.393V.392c0-.217.176-.393.393-.393h8.491c.217 0 .393.176.393.393v.135a.393.393 0 0 1-.393.393h-2.083L13.07 2.71h3.898c4.423 0 7.608 2.813 8.03 5.423 0 1.44-1.95 1.834-2.319 1.834zM6.975 4.19a.622.622 0 0 0-.628-.616H1.453a.622.622 0 0 0-.628.616v.863c0 .34.281.616.628.616h4.894a.622.622 0 0 0 .628-.616zm.816 0v.863c0 .34.282.616.629.616h3.893a.622.622 0 0 0 .628-.616V4.19a.622.622 0 0 0-.628-.616H8.42a.622.622 0 0 0-.629.616zm11.124.779v-.004-.228c0-.369-.317-1.125-1.146-1.125h-3.174c-.57 0-.778.262-.778.63v.863c0 .415.27.564.684.564h3.81c.37 0 .604-.22.604-.544v-.156zm1.418-1.072c-.318-.179-.531-.019-.531.332v1.093c0 .414.35.486.503.534 1.282.443 1.752 1.655 2.748 1.755.401.079 1.035-.07 1.035-.07s-.003-1.139-1.971-2.73c-1.058-.792-1.788-.926-1.784-.914z"/></g></g></svg>