<svg xmlns="http://www.w3.org/2000/svg" width="8" height="13" viewBox="0 0 8 13"><g><g><path fill="#a2a1a1" d="M3.139 12.179h1.424V10.85c.935-.114 1.647-.413 2.136-.894.488-.481.732-1.107.732-1.878 0-.683-.208-1.242-.626-1.675-.417-.433-1.105-.82-2.063-1.16a12.36 12.36 0 0 1-1.108-.422c-.266-.121-.453-.232-.56-.33a.485.485 0 0 1-.162-.375c0-.175.074-.306.223-.396.15-.09.407-.134.774-.134.77 0 1.635.216 2.594.647l.818-1.96c-.926-.4-1.846-.625-2.758-.675V.67H3.139v.943c-.973.1-1.702.364-2.188.791C.465 2.83.222 3.422.222 4.18c0 .495.081.909.244 1.241.163.333.423.633.78.902.359.268.829.51 1.411.725.518.188.93.349 1.235.482.305.133.523.252.654.358.13.105.196.233.196.385 0 .22-.091.377-.272.47-.181.095-.467.142-.857.142-.472 0-1.02-.09-1.644-.272a9.911 9.911 0 0 1-1.733-.677v2.283a8.176 8.176 0 0 0 2.903.675z"/></g></g></svg>