<svg xmlns="http://www.w3.org/2000/svg" width="16" height="16" viewBox="0 0 16 16"><g><g opacity=".99"><path fill="#fff" d="M11.994 16.007H3.997a4.013 4.013 0 0 1-4-4.001V4.002c0-2.2 1.8-4.002 4-4.002h7.997a4.012 4.012 0 0 1 3.998 4.002v8.004c0 2.2-1.8 4.001-3.998 4.001zm2.665-12.005a2.67 2.67 0 0 0-2.665-2.668H3.997A2.67 2.67 0 0 0 1.33 4.002v8.004a2.67 2.67 0 0 0 2.666 2.667h7.997a2.67 2.67 0 0 0 2.665-2.667zm-2.332.667a1 1 0 1 1 0-2 1 1 0 0 1 0 2zm-4.332 7.337a4 4 0 0 1-3.998-4.003 4 4 0 1 1 7.997 0c0 2.21-1.79 4.003-3.999 4.003zm0-6.67A2.666 2.666 0 0 0 5.33 8.003a2.667 2.667 0 1 0 2.666-2.667z"/></g></g></svg>