<svg xmlns="http://www.w3.org/2000/svg" width="105" height="25" viewBox="0 0 105 25"><g><g><path fill="#f9df07" d="M102.02 16.4c-2.973 0-2.98-2.875-2.98-2.875v-4.48h1.825v4.182s-.09 1.38 1.155 1.38c1.162 0 1.155-1.343 1.155-1.343V9.046H105v4.442s-.007 2.911-2.98 2.911zm-6.184-.187l-1.826-3.061v3.061h-1.863V9.046h3.092c1.144 0 2.608.474 2.608 2.463 0 1.233-.839 1.78-1.652 1.977l1.801 2.727zm-.745-5.525h-1.08v1.642h.856s1.08.053 1.08-.858c0-.837-.856-.784-.856-.784zM89.856 16.4c-.606 0-1.098-.468-1.098-1.045s.492-1.045 1.098-1.045c.607 0 1.1.468 1.1 1.045s-.493 1.045-1.1 1.045zm-3.706-2.388h-.521v2.202h-1.826V9.046h2.794c1 0 2.607.624 2.607 2.463 0 2.603-3.054 2.502-3.054 2.502zm.298-3.323h-.82v1.68h.596s1.081.133 1.081-.896c0-.837-.857-.784-.857-.784zM80.3 9.046h1.825v7.167h-1.825zm-3.315 7.167l-1.826-3.061v3.061h-1.863V9.046h3.092c1.144 0 2.608.474 2.608 2.463 0 1.233-.839 1.78-1.652 1.977l1.801 2.727zm-.745-5.525h-1.08v1.642h.856s1.08.053 1.08-.858c0-.837-.856-.784-.856-.784zm-5.85 5.525h-1.825v-5.525h-1.862V9.046h5.55v1.642h-1.862zm-4.954 0l-.41-.971h-2.31l-.41.971h-1.974l3.39-7.204c.054-.112.255-.136.336 0 .107.177 3.353 7.204 3.353 7.204zm-1.602-3.994l-.633 1.53h1.304zm-6.52 1.083h-2.383v2.911h-1.826V9.046h1.826v2.613h2.384V9.046h1.825v7.167h-1.825zm-8.381.709h-.521v2.202h-1.826V9.046h2.794c1 0 2.608.624 2.608 2.463 0 2.603-3.055 2.502-3.055 2.502zm.298-3.323h-.82v1.68h.596s1.081.133 1.081-.896c0-.837-.857-.784-.857-.784zm-7.86-1.642h1.825v5.524h2.347v1.643h-4.172zm-3.13 6.196h-2.31l-.409.971h-1.975s3.382-7.19 3.39-7.204c.054-.112.255-.136.336 0 .107.177 3.39 7.204 3.39 7.204h-2.011zm-1.191-3.023l-.634 1.53h1.304zm-24.39 12.78c-6.992 0-12.66-5.597-12.66-12.5s5.668-12.5 12.66-12.5c6.993 0 12.662 5.597 12.662 12.5s-5.669 12.5-12.662 12.5zm0-23.29c-4.87 0-8.996 3.148-10.408 7.495l7.876-.126 2.573-7.367a.773.773 0 0 0-.04-.001zm.223.006l2.443 7.363 7.742.123c-1.39-4.278-5.412-7.391-10.185-7.486zM23.59 12.5c0-1.032-.15-2.029-.424-2.974l-6.107 4.552 2.031 7.144c2.726-1.961 4.5-5.136 4.5-8.722zm-6.665 7.5l-1.999-6.711 3.199-2.368-4.265-.132-1.066-3.684-1.333 3.684-4.131.132L9.196 12.5l-1.2 1.315-5.817-4.37a10.665 10.665 0 0 0-.447 3.055c0 3.634 1.823 6.846 4.612 8.801l1.786-6.17h5.065l-.8 1.71H9.463l-.933 3.158-2.028 1.413a10.981 10.981 0 0 0 6.16 1.877c2.314 0 4.458-.713 6.225-1.924z"/></g></g></svg>