<svg xmlns="http://www.w3.org/2000/svg" width="16" height="10" viewBox="0 0 16 10"><g><g opacity=".99"><path fill="#fff" d="M13.33 5.715c.134-.357.733-1.213 1.133-1.926 1.265-1.996 1.532-2.424 1.532-2.71 0-.213-.133-.355-.333-.355h-2.997c-.133 0-.267.142-.333.285-.2.998-2.331 3.779-2.664 3.993-.134 0-.333-.357-.333-1.07V.938c.067-.214 0-.5-.134-.642C8.935.01 8.602.01 7.67.01 5.938.01 5.339.58 5.339 1.08c0 .214.133.356.266.356 0 0 .4.286.4 1.783 0 .57 0 1.212-.067 1.783C5.072 4.859 3.94 2.578 3.341.938a.363.363 0 0 0-.333-.214H.343c-.2 0-.333.142-.333.356v.071c.4 2.14 4.596 8.841 7.327 8.841h1.332c.733 0 .733-.856.799-1.354.066-.5.066-.785.2-.785.4 0 1.265.785 1.798 1.283.533.5.932.856 1.199.856h1.665c.866 0 1.665 0 1.665-.713 0-.285-.2-.57-1.465-2.139-.467-.499-1-1.14-1.2-1.425z"/></g></g></svg>