<svg xmlns="http://www.w3.org/2000/svg" width="14" height="18" viewBox="0 0 14 18"><g><g><path fill="#d53738" d="M13.702 10.132H1.966v7.57a.298.298 0 0 1-.298.297H.298A.298.298 0 0 1 0 17.702V.297C0 .133.133 0 .298 0h13.404c.164 0 .298.134.298.298v.921l-.02.02a.298.298 0 0 1-.171.172l-2.785 2.786a1.23 1.23 0 0 0 0 1.739l2.786 2.787c.077.03.139.092.169.17l.02.02v.922a.298.298 0 0 1-.297.298zM4.349 1.609a.298.298 0 0 0-.298-.298H2.025a.298.298 0 0 0-.297.298V2.86c0 .165.133.298.297.298h2.026a.298.298 0 0 0 .298-.298zm0 3.695a.298.298 0 0 0-.298-.298H2.025a.298.298 0 0 0-.297.298v1.251c0 .165.133.299.297.299h2.026a.298.298 0 0 0 .298-.299zm2.919-1.848a.298.298 0 0 0-.298-.298H4.945a.298.298 0 0 0-.298.298v1.252c0 .165.133.298.298.298H6.97a.298.298 0 0 0 .298-.298zm0 3.695a.298.298 0 0 0-.298-.297H4.945a.298.298 0 0 0-.298.297v1.252c0 .165.133.298.298.298H6.97a.298.298 0 0 0 .298-.298zm2.92-5.542a.298.298 0 0 0-.299-.298H7.864a.298.298 0 0 0-.298.298V2.86c0 .165.133.298.298.298h2.025a.298.298 0 0 0 .298-.298zm0 3.695a.298.298 0 0 0-.299-.298H7.864a.298.298 0 0 0-.298.298v1.251c0 .165.133.299.298.299h2.025a.298.298 0 0 0 .298-.299zm.952 2.086a.298.298 0 0 0-.298-.298h-.476a.298.298 0 0 0-.298.298v.298c0 .165.133.298.298.298h.476a.298.298 0 0 0 .298-.298z"/></g></g></svg>