<svg xmlns="http://www.w3.org/2000/svg" width="25" height="18" viewBox="0 0 25 18"><g><g><path fill="#949494" d="M21.918 6.312v2.226h2.868v1.494h-2.868v3.413h-1.764V4.813H25v1.499zm-7.598 7.133h-2.394V4.813h2.654c1.38 0 2.452.371 3.216 1.115.763.744 1.145 1.783 1.145 3.118 0 1.42-.397 2.51-1.189 3.264-.792.756-1.936 1.135-3.432 1.135zm.353-7.133h-.955v5.62h.77c1.727 0 2.59-.946 2.59-2.839 0-1.854-.802-2.781-2.405-2.781zm-9.8 7.133V4.813h2.701c1.026 0 1.805.225 2.34.675.534.451.8 1.124.8 2.017 0 .929-.284 1.64-.853 2.131-.568.492-1.377.738-2.426.738h-.769v3.07zm2.383-4.57c.551 0 .964-.111 1.238-.334.273-.222.41-.546.41-.971 0-.429-.114-.746-.344-.95-.23-.205-.589-.308-1.078-.308h-.816v2.563zm4.705-7.773a.233.233 0 0 0-.231-.235H4.417v2.75a.778.778 0 0 1-.77.786H.876v12.575c0 .13.103.235.23.235H11.73a.233.233 0 0 0 .231-.235v-2.044h.924v1.887c0 .65-.517 1.178-1.155 1.178H1.183A1.167 1.167 0 0 1 .03 16.821V4.403H0L4.417.001v.001h7.313c.638 0 1.155.528 1.155 1.178v2.201h-.924z"/></g></g></svg>