<svg xmlns="http://www.w3.org/2000/svg" width="19" height="19" viewBox="0 0 19 19"><g><g><path fill="#2d2d2d" d="M18.545 19H17.52a.454.454 0 0 1-.455-.453l-2.731-5.305v5.192a.567.567 0 0 1-.569.566H5.233a.567.567 0 0 1-.569-.566v-5.192l-2.73 5.305c0 .25-.204.453-.455.453H.455A.454.454 0 0 1 0 18.547l2.617-9.273c0-.336.183-.627.455-.784v-.008l.068-.026a.886.886 0 0 1 .125-.049l3.902-1.509S5.688 5.04 5.688 3.618C5.688 2.199 7.032 0 9.443 0c2.41 0 3.868 2.198 3.868 3.619 0 1.42-1.479 3.28-1.479 3.28l3.903 1.508c.043.013.085.03.125.049l.068.026v.008a.903.903 0 0 1 .455.784L19 18.547c0 .25-.204.453-.455.453zM9.443 1.809c-1.195 0-1.934 1.074-1.934 1.923 0 .848 1.934 3.053 1.934 3.053S11.49 4.76 11.49 3.732c0-1.028-.854-1.923-2.048-1.923z"/></g></g></svg>