<svg xmlns="http://www.w3.org/2000/svg" width="28" height="33" viewBox="0 0 28 33"><g><g><path fill="#2d2d2d" d="M25.941 13.022H10.453a3.825 3.825 0 0 1-3.191 1.702c-2.109 0-3.818-1.69-3.818-3.774s1.71-3.773 3.818-3.773c1.366 0 2.564.71 3.239 1.776h15.44c1.137 0 2.059.91 2.059 2.035 0 1.123-.922 2.034-2.059 2.034zM7.262 6.215c-2.688 0-4.866 2.153-4.866 4.81 0 2.656 2.178 4.809 4.866 4.809a4.88 4.88 0 0 0 3.775-1.776h3.487v13.54c0 .409-.335.74-.749.74h-1.44C12.125 30.949 9.918 33 7.225 33c-2.694 0-4.9-2.053-5.111-4.661H.749a.745.745 0 0 1-.75-.74V5.326c0-.408.336-.74.75-.74h1.37C2.366 2.014 4.557 0 7.226 0c2.668 0 4.859 2.014 5.104 4.587h1.446c.414 0 .749.332.749.74v2.59h-3.55a4.878 4.878 0 0 0-3.712-1.702zM5.54 23.377v1.706c0 .94.771 1.702 1.722 1.702.95 0 1.722-.762 1.722-1.702v-1.706a3.021 3.021 0 0 0 1.347-2.512c0-1.675-1.374-3.033-3.069-3.033-1.695 0-3.07 1.358-3.07 3.033 0 1.045.535 1.966 1.348 2.512z"/></g></g></svg>