<svg xmlns="http://www.w3.org/2000/svg" width="35" height="25" viewBox="0 0 35 25"><g><g><path fill="#2d2d2d" d="M33.735 25h-1.418c-.197.01-.269-.101-.269-.327v-8.66a.415.415 0 0 0-.422-.409H21.76a.415.415 0 0 0-.422.409v8.66c0 .226-.158.327-.28.327h-4.949-2.277c-.154 0-.253-.087-.253-.24v-5.888a.415.415 0 0 0-.421-.408H9.193a.415.415 0 0 0-.422.408v5.878c0 .16-.094.25-.258.25H3.205c-.699 0-1.265-.549-1.265-1.226V11.846h-.928S0 11.54 0 10.703c0-.475.104-.723.347-.979L10.291.336a1.216 1.216 0 0 1 1.68 0l5.487 5.187V1.389A.83.83 0 0 1 18.3.572h3.12a.83.83 0 0 1 .844.817v8.676c.44.381 1.033.903 1.434 1.29.275.267.475.413.619.491h9.417c.698 0 1.265.549 1.265 1.226v10.784c0 .677-.567 1.144-1.265 1.144zM10.626 9.477a.415.415 0 0 0-.421-.409H8.18a.415.415 0 0 0-.422.409v2.042c0 .226.189.409.422.409h2.024a.415.415 0 0 0 .421-.409zm0 3.676a.415.415 0 0 0-.421-.408H8.18a.415.415 0 0 0-.422.408v2.043c0 .226.189.409.422.409h2.024a.415.415 0 0 0 .421-.41zm3.88-3.676a.415.415 0 0 0-.422-.409H12.06a.415.415 0 0 0-.422.409v2.042c0 .226.19.409.422.409h2.024a.415.415 0 0 0 .422-.409zm0 3.676a.415.415 0 0 0-.422-.408H12.06a.415.415 0 0 0-.422.408v2.043c0 .226.19.409.422.409h2.024a.415.415 0 0 0 .422-.41zm9.699 4.412h4.976c.512 0 .927.402.927.899 0 .496-.415.899-.927.899h-4.976c-.513 0-.928-.403-.928-.899 0-.497.415-.899.928-.899zm0 2.86h4.976c.512 0 .927.402.927.898 0 .497-.415.899-.927.899h-4.976c-.513 0-.928-.402-.928-.899 0-.496.415-.899.928-.899zm0 2.777h4.976c.512 0 .927.403.927.899 0 .497-.415.899-.927.899h-4.976c-.513 0-.928-.402-.928-.899 0-.496.415-.899.928-.899z"/></g></g></svg>