<svg xmlns="http://www.w3.org/2000/svg" width="33" height="30" viewBox="0 0 33 30"><g><g><path fill="#2d2d2d" d="M32.583 11.221l-1.422 1.317V28.86c0 .629-.513 1.139-1.147 1.139h-13.42l-.057-.003c-.019.001-.037.003-.057.003H2.946c-.633 0-1.147-.51-1.147-1.14V12.443L.412 11.155c-.493-.457-.554-1.188-.135-1.633L6.54 2.857c.066-.12.151-.232.259-.33L8.858.39l.058-.062c.418-.445 1.157-.436 1.65.021l1.556 1.74c.147.136.82.86.82.86l3.525 3.745 3.607-3.838a1.31 1.31 0 0 1 .259-.33L22.392.39l.058-.062c.418-.445 1.157-.436 1.65.021l1.709 1.903.667.696 6.242 6.635c.42.446.36 1.18-.135 1.637zM9.687 7.297l-.142.147h.283zm-5.594 5.802v14.736h2.753v-7.404h5.735v7.404h2.752V13.15L9.938 7.558h-.503l-5.32 5.521-.022.02zm19.128-5.802l-.142.147h.283zm5.646 5.853l-5.395-5.592h-.503l-5.227 5.424v14.853h2.638v-7.404h5.735v7.404h2.752zm-5.046 1.015h2.294v2.506H23.82zm-3.441 0h2.294v2.506H20.38zm-13.534 0H9.14v2.506H6.846zm5.735 2.506h-2.294v-2.506h2.294z"/></g></g></svg>