<svg xmlns="http://www.w3.org/2000/svg" width="25" height="30" viewBox="0 0 25 30"><g><g><path fill="#2d2d2d" d="M20.697 14.6v8.02h.82c.376 0 .682.305.682.683v.956a.683.683 0 0 1-.683.684h-.82v.888h1.913c.377 0 .683.306.683.684v.956a.683.683 0 0 1-.683.684h-1.912v.683a.683.683 0 0 1-.684.683h-1.366a.683.683 0 0 1-.683-.683V14.585A5.64 5.64 0 0 1 17.42 3.83a6.034 6.034 0 0 0-4.818-2.395 6.046 6.046 0 0 0-6.045 6.048v2.016h4.099c.566 0 1.024.459 1.024 1.025v14.145c0 .239-.082.457-.218.631-.05.089-.112.173-.187.248L6.72 29.663a1.15 1.15 0 0 1-1.625 0L.472 25.548c-.014-.013-.026-.028-.04-.042A1.024 1.024 0 0 1 0 24.669V10.524c0-.566.459-1.025 1.024-1.025h4.099V7.278A7.276 7.276 0 0 1 12.397 0h.41a7.27 7.27 0 0 1 6.217 3.496 5.637 5.637 0 0 1 1.673 11.105zM5.84 14.01a.717.717 0 0 1-.717-.719l.002-.034h-.002v-1.24a2.085 2.085 0 0 0 .717 4.042 2.084 2.084 0 0 0 .717-4.042v1.24h-.001l.001.034a.717.717 0 0 1-.717.718zM20 6.188c.054.355.082.719.082 1.089v.785h-.002a.717.717 0 0 1-1.43 0h-.003v-.58c0-.415-.042-.82-.12-1.212A1.948 1.948 0 1 0 20 6.19z"/></g></g></svg>