<svg xmlns="http://www.w3.org/2000/svg" width="16" height="32" viewBox="0 0 16 32"><g><g><path fill="#2d2d2d" d="M4.086 8.522c0 1.094-.953 1.982-2.043 1.982A1.979 1.979 0 0 1 .096 8.2l-.024-.002A8.44 8.44 0 0 1 .069 8c0-4.418 3.566-8 7.966-8C12.434 0 16 3.582 16 8v21.565A2.43 2.43 0 0 1 13.576 32H2.424A2.43 2.43 0 0 1 0 29.565V16.069c0-1.266.594-2.42 5.056-3.478l2.494-.695c2.164-.74 4.502-2.092 4.502-3.862 0-2.208-1.783-4-3.983-4a3.992 3.992 0 0 0-3.983 4v.488zm1.698 19.79h4.432c.823 0 1.49-.669 1.49-1.495 0-.826-.667-1.495-1.49-1.495H5.784c-.823 0-1.49.669-1.49 1.495 0 .826.667 1.496 1.49 1.496zm6.441-8.764h-8.38c-.823 0-1.49.67-1.49 1.495 0 .826.667 1.496 1.49 1.496h8.38c.823 0 1.49-.67 1.49-1.496s-.667-1.495-1.49-1.495z"/></g></g></svg>