<svg xmlns="http://www.w3.org/2000/svg" width="29" height="29" viewBox="0 0 29 29"><g><g><path fill="#2d2d2d" d="M28.685 13.278h-.568a.315.315 0 0 1-.315-.316v-.948h-2.395v.948a.315.315 0 0 1-.315.316h-1.828a.315.315 0 0 1-.315-.316v-.948h-2.396v.948a.315.315 0 0 1-.315.316H18.41a.315.315 0 0 1-.315-.316v-.948h-2.396v.948a.315.315 0 0 1-.315.316h-1.828a.315.315 0 0 1-.315-.316v-.948H10.91v.948a.315.315 0 0 1-.315.316H8.766a.315.315 0 0 1-.315-.316v-.948H6.055v.948a.315.315 0 0 1-.315.316H3.912a.315.315 0 0 1-.315-.316v-.948H1.2v.948a.315.315 0 0 1-.315.316H.32a.315.315 0 0 1-.315-.316v-1.894s-.047-.273.189-.443C.429 10.455 14.153.158 14.25.081c.266-.24.63.126.63.126l13.868 10.418s.252.136.252.38V12.961a.315.315 0 0 1-.315.316zM6.37 27.8h4.476v-.917c0-.174.141-.316.315-.316h2.143v-10.9c0-.175.141-.316.315-.316h1.828c.174 0 .316.141.316.315v10.901h2.08c.174 0 .314.142.314.316v.917h4.476c.174 0 .316.141.316.316v.568a.315.315 0 0 1-.316.316H6.37a.315.315 0 0 1-.315-.316v-.568c0-.175.141-.316.315-.316z"/></g></g></svg>