<svg xmlns="http://www.w3.org/2000/svg" width="14" height="24" viewBox="0 0 14 24"><g><g><path fill="#2d2d2d" d="M11.838 24H2.162C.968 24 0 23.003 0 21.776V2.22C0 .994.968 0 2.162 0h9.676C13.032 0 14 .994 14 2.221v19.556c0 1.227-.968 2.222-2.162 2.222zm.703-21.39c0-.613-.485-1.11-1.082-1.11H2.54c-.597 0-1.08.497-1.08 1.11v18.778c0 .614.483 1.112 1.08 1.112h8.92c.596 0 1.08-.498 1.08-1.112zm-5.514 19c-.985 0-1.784-.82-1.784-1.833 0-1.012.799-1.833 1.784-1.833s1.784.82 1.784 1.833-.799 1.834-1.784 1.834zM8.054 3.834H6a.768.768 0 0 1-.757-.778c0-.43.339-.778.757-.778h2.054c.418 0 .757.348.757.778 0 .43-.34.778-.757.778z"/></g></g></svg>