<svg xmlns="http://www.w3.org/2000/svg" width="18" height="24" viewBox="0 0 18 24"><g><g><path fill="#2d2d2d" d="M17.95 9.87v11.098a3.033 3.033 0 0 1-3.034 3.031H3.034A3.033 3.033 0 0 1 0 20.968V9.667 6.82l.009-.042c.056-.235.45-1.463 2.834-3.611a1.513 1.513 0 0 1-.012-.186V1.515C2.831.678 3.511 0 4.348 0h9.303c.838 0 1.517.679 1.517 1.516v1.466c0 .068-.005.136-.014.202 2.386 2.14 2.78 3.364 2.837 3.6a.582.582 0 0 1 .009.041v3.129zM13.6 2.07a.505.505 0 0 0-.506-.504h-8.19a.505.505 0 0 0-.506.505v.859H13.6zm2.78 5.386c-.463-1.195-2.253-2.833-2.427-2.99-.098.02-.199.03-.303.03H4.348a1.52 1.52 0 0 1-.321-.034c-.197.179-2.084 1.92-2.46 3.116v.354h14.815zm0 2.043H1.568v8.286h14.815zm0 9.852H1.568v1.061c0 1.116.906 2.021 2.023 2.021h10.77a2.022 2.022 0 0 0 2.022-2.021zm-7.356-8.943a3.26 3.26 0 1 1 0 6.517 3.26 3.26 0 1 1 0-6.517z"/></g></g></svg>