<svg xmlns="http://www.w3.org/2000/svg" width="23" height="24" viewBox="0 0 23 24"><g><g><path fill="#2d2d2d" d="M18.836 17.757a3.268 3.268 0 0 1 1.92 2.973A3.277 3.277 0 0 1 17.47 24a3.277 3.277 0 0 1-3.286-3.27c0-.75.255-1.442.683-1.993H11.54c-.18 0-.359-.007-.536-.018.436.555.696 1.253.696 2.011A3.277 3.277 0 0 1 8.414 24a3.277 3.277 0 0 1-3.285-3.27 3.27 3.27 0 0 1 2.169-3.075c-2.726-1.492-4.573-4.375-4.573-7.69V8.77c0-.317.017-.63.05-.938a.88.88 0 0 0-.852-.657H0V6.06A.8.8 0 0 1 .8 5.262h1.563a2.358 2.358 0 0 1 2.364 2.352v.598h8.1l-1.959-5.91a1.01 1.01 0 0 1-.045-.435c-.002-.038-.005-.075-.005-.114C10.819.83 11.572 0 12.502 0c.082 0 .16.003.234.006v-.006h2.25C19.412 0 23 3.57 23 7.973v2.79c0 3.015-1.683 5.639-4.164 6.994zm-1.366 4.25a1.28 1.28 0 0 0 1.283-1.277c0-.704-.575-1.275-1.283-1.275s-1.282.57-1.282 1.275a1.28 1.28 0 0 0 1.282 1.276zM7.132 20.73a1.28 1.28 0 0 0 1.282 1.276 1.28 1.28 0 0 0 1.283-1.276c0-.704-.574-1.275-1.283-1.275-.708 0-1.282.57-1.282 1.275zm7.213-18.817h-1.422l2.088 6.3h6.127c-.247-3.52-3.193-6.3-6.793-6.3zm-9.617 8.133c0 3.743 3.05 6.777 6.812 6.777h2.805c3.762 0 6.812-3.034 6.812-6.777z"/></g></g></svg>