<svg xmlns="http://www.w3.org/2000/svg" width="26" height="24" viewBox="0 0 26 24"><g><g><path fill="#2e2e2e" d="M15.317.613s.064-.58.535-.614c2.752.058 4.122.713 4.464.903.101.045.298.12.403.188l4.81 2.928a.752.752 0 0 1 .127.053c.388.21.468.703.264 1.102l-2.553 5.225a.782.782 0 0 1-1.174.274.98.98 0 0 1-.066-.034l-1.263-.618v12.608c0 .758-.6 1.371-1.342 1.371H6.507c-.74 0-1.341-.613-1.341-1.371V10.009l-1.28.63a.928.928 0 0 1-.065.033.778.778 0 0 1-1.17-.275L.11 5.17c-.203-.399-.123-.892.263-1.102a.782.782 0 0 1 .127-.053l4.79-2.93c.098-.063.296-.161.38-.184.363-.2 1.736-.844 4.461-.902.473.035.537.686.537.686l.095.294c.283.98 1.17 1.694 2.22 1.694 1.04 0 1.922-.703 2.212-1.67zm4.73 1.931c-.016-.007-.03-.013-.044-.021-1.32-.676-3.07-.866-3.262-.885-.548 1.563-2.009 2.681-3.726 2.681-1.715 0-3.174-1.115-3.723-2.674h-.034s-1.887.172-3.287.891l-.026.013-4.109 2.537 1.87 3.843 1.46-.719v-.84a.78.78 0 0 1 .771-.788.78.78 0 0 1 .772.789v15.12H19.32V7.37a.78.78 0 0 1 .772-.79.78.78 0 0 1 .771.79v.85l1.445.709 1.877-3.842z"/></g></g></svg>