<svg xmlns="http://www.w3.org/2000/svg" width="21" height="24" viewBox="0 0 21 24"><g><g><path fill="#2e2e2e" d="M19.9 21.102h-2.418v1.804c0 .604-.493 1.093-1.1 1.093H1.099C.492 24 0 23.51 0 22.906V4.592c0-.605.493-1.094 1.1-1.094h1.814V1.093c0-.604.493-1.094 1.1-1.094H16.24L21 4.763V20.01c0 .603-.492 1.093-1.1 1.093zM2.914 20.009V4.865h-1.54v17.767h14.733v-1.53H4.013c-.607 0-1.1-.49-1.1-1.093zm13.688-17.58v1.998h2.02zm3.023 3.365h-3.298c-.607 0-1.1-.49-1.1-1.093V1.366H4.288v18.37h15.338zM6.652 8.418h10.61c.394 0 .714.319.714.711 0 .393-.32.711-.714.711H6.652a.713.713 0 0 1-.715-.71c0-.393.32-.712.715-.712zm0 3.609h10.61c.394 0 .714.318.714.71 0 .393-.32.71-.714.71H6.652a.712.712 0 0 1-.715-.71c0-.392.32-.71.715-.71zm0 3.608h10.61c.394 0 .714.318.714.71 0 .393-.32.711-.714.711H6.652a.713.713 0 0 1-.715-.71c0-.393.32-.711.715-.711z"/></g></g></svg>