<svg xmlns="http://www.w3.org/2000/svg" width="27" height="22" viewBox="0 0 27 22"><g><g><path fill="#2d2d2d" d="M19.353 21.999c-3.745 0-6.859-2.666-7.517-6.185a2.798 2.798 0 0 1-2.096-2.7c0-.398.085-.777.237-1.12l-.795-.814a3.382 3.382 0 0 1-1.62.412 3.387 3.387 0 0 1-1.508-.353L4.18 13.094c.06.193.092.4.092.613a2.126 2.126 0 0 1-2.136 2.116A2.126 2.126 0 0 1 0 13.707c0-1.169.956-2.115 2.136-2.115.235 0 .46.039.671.107l1.797-1.84a3.3 3.3 0 0 1 .01-3.237l-.653-.624c-.199.06-.41.094-.629.094a2.126 2.126 0 0 1-2.136-2.116c0-1.168.956-2.115 2.136-2.115 1.18 0 2.136.947 2.136 2.115 0 .255-.048.498-.131.725l.632.604c.219-.116.451-.212.695-.278v-.88a1.855 1.855 0 0 1-.94-1.609A1.87 1.87 0 0 1 7.605.676a1.87 1.87 0 0 1 1.88 1.862c0 .723-.417 1.348-1.025 1.656v.833c.24.066.47.16.686.274l1.905-1.834a2.083 2.083 0 0 1-.113-.675c0-1.169.956-2.116 2.136-2.116 1.18 0 2.136.947 2.136 2.116a2.126 2.126 0 0 1-2.136 2.115 2.15 2.15 0 0 1-.68-.112l-1.89 1.819c.125.218.223.453.296.697l.926.013a1.881 1.881 0 0 1 2.415-.71C16.19 2.9 18.867 0 19.353 0 20.273 0 27 8.1 27 14.426 27 18.61 23.576 22 19.353 22zM2.093 13.03a.638.638 0 0 0-.64.635c0 .35.286.634.64.634a.638.638 0 0 0 .641-.634.638.638 0 0 0-.64-.635zM3.29 3.3a.638.638 0 0 0-.64.634c0 .35.287.635.64.635a.638.638 0 0 0 .641-.635.638.638 0 0 0-.64-.635zm4.273 3.469c-.826 0-1.496.663-1.496 1.48 0 .818.67 1.48 1.496 1.48.825 0 1.495-.662 1.495-1.48 0-.817-.67-1.48-1.495-1.48zm5.468-3.385c.354 0 .64-.284.64-.635a.638.638 0 0 0-.64-.634.638.638 0 0 0-.64.634c0 .351.286.635.64.635zm-1.282 10.144c.034-.365.087-.734.157-1.104a.882.882 0 0 0-.157 1.104zm-.057-4.325l-.891-.012c-.069.23-.164.45-.278.658l.76.777c.358-.18.76-.287 1.185-.3.037-.11.075-.218.115-.326a1.883 1.883 0 0 1-.891-.797zm7.662-5.65c-.624 0-5.255 6.673-5.255 10.873 0 2.874 2.353 5.204 5.255 5.204 2.902 0 5.254-2.33 5.254-5.204 0-4.51-4.574-10.873-5.254-10.873zm4.255 11.235l.01.002c-.3 2.015-1.952 3.593-4.014 3.801l-.003-.016a1.106 1.106 0 0 1-1.402-1.06c0-.58.454-1.054 1.029-1.096 1.018-.258 1.847-1.102 2.072-2.12l.066.014a1.15 1.15 0 0 1 1.148-1.029c.637 0 1.154.511 1.154 1.142 0 .127-.022.248-.06.362zM3.759 8.25c0 .865-.707 1.566-1.58 1.566-.873 0-1.581-.7-1.581-1.566 0-.864.708-1.565 1.58-1.565.874 0 1.581.7 1.581 1.565zm3.888 3.85c.873 0 1.58.701 1.58 1.566 0 .864-.707 1.565-1.58 1.565-.873 0-1.58-.7-1.58-1.565s.707-1.565 1.58-1.565z"/></g></g></svg>