<svg xmlns="http://www.w3.org/2000/svg" width="27" height="14" viewBox="0 0 27 14"><g><g><path fill="#2d2d2d" d="M27 12.553c0 .8-.803 1.447-1.642 1.447H1.52C.68 14 0 13.352 0 12.553V1.446C0 .647.68-.001 1.52-.001h5.777c.47 0 .89.203 1.168.52h.064c2.517 3.131 5.334 4.855 12.055 5.333h.791c.115-.006.235-.01.365-.01 2.905 0 5.26 2.24 5.26 5.005 0 .148-.013 1.281-.018 1.648H27zM7.252 1.503H1.581v8.505h18.65a4.49 4.49 0 0 1 .251-2.702c-.296-.01-.606-.017-.931-.017-5.014 0-9.47-2.269-12.299-5.786zM22.21 7.375a3.079 3.079 0 0 0-.348 2.633h3.45c-.359-1.387-1.586-2.45-3.102-2.633zm3.209 4.135l-.061.002H1.581v.983h23.838v-.985zM5.625 7.115c-1.025 0-1.855-.79-1.855-1.765 0-.974.83-1.764 1.855-1.764 1.024 0 1.855.79 1.855 1.764 0 .975-.83 1.765-1.855 1.765z"/></g></g></svg>