<svg xmlns="http://www.w3.org/2000/svg" width="27" height="19" viewBox="0 0 27 19"><g><g><path fill="#2d2d2d" d="M26.576 9.606c-.082 4.247-.318 5.333-.398 5.582a2.084 2.084 0 1 1-2.821 3.042c-.413.075-4.347.77-9.786.77-5 0-8.993-.587-9.955-.74a2.084 2.084 0 1 1-2.794-3.071c-.08-.25-.316-1.336-.398-5.583.104-3.841.258-5.293.35-5.833A2.084 2.084 0 1 1 3.616.74C4.577.586 8.57 0 13.57 0c5.439 0 9.373.695 9.786.77a2.084 2.084 0 1 1 2.87 3.004c.09.54.245 1.992.349 5.833zm-2.213 5.23c.007-.003.015-.004.022-.005.017-.04.327-.846.424-5.225-.15-4.836-.406-5.405-.423-5.438l-.023-.005c-.022-.398.016-1.26.658-1.833l.005-.014a.211.211 0 0 0-.076-.41.212.212 0 0 0-.212.209c-.192.166-.785.568-1.876.4-.002-.006-.002-.015-.003-.022-.828-.149-3.734-.587-9.288-.587-5.742 0-8.706.468-9.432.6l-.001.01c-.047.007-.091.012-.136.017l-.044.009-.001-.003c-.976.098-1.515-.268-1.696-.424a.212.212 0 0 0-.423.003c0 .09.056.167.136.198l.005.014c.642.574.68 1.435.657 1.833l-.022.005c-.017.033-.273.602-.423 5.438.096 4.379.407 5.185.423 5.225.008.001.015.002.022.005.022.398-.015 1.26-.657 1.832l-.005.015a.21.21 0 0 0-.136.198.212.212 0 0 0 .423.003c.181-.156.72-.522 1.696-.424l.001-.003.044.009c.045.005.09.01.136.017l.001.009c.726.132 3.69.6 9.432.6 5.554 0 8.46-.438 9.288-.586.001-.008.001-.016.003-.023 1.09-.167 1.684.235 1.876.4a.212.212 0 0 0 .424-.002.21.21 0 0 0-.136-.198l-.005-.015c-.642-.573-.68-1.434-.658-1.832zm-7.223.773l-.083-.002.001-.009a.883.883 0 1 1-.13-1.755c.12 0 .225.003.319.01l.001-.012a4.592 4.592 0 0 0 4.484-5.162.88.88 0 0 1 .85-1.122c.444 0 .81.327.873.753l.016-.003a6.395 6.395 0 0 1-6.331 7.302zm-11.804-.777a.883.883 0 0 1-.867-.718 15.974 15.974 0 0 1-.723-4.756c0-1.563.227-3.073.645-4.5a.883.883 0 0 1 1.757.106l.055.01a14.21 14.21 0 0 0-.69 4.384c0 1.53.243 3.004.69 4.386l-.008.003a.881.881 0 0 1-.859 1.085z"/></g></g></svg>