<svg xmlns="http://www.w3.org/2000/svg" width="27" height="22" viewBox="0 0 27 22"><g><g><path fill="#2d2d2d" d="M23.376 22H3.624C1.623 22 0 20.42 0 18.47V6.882c0-1.95 1.623-3.53 3.624-3.53h5.134V1.94C8.758.87 9.651 0 10.751 0h5.558c1.1 0 1.993.869 1.993 1.94v1.412h5.074c2.001 0 3.624 1.58 3.624 3.53V18.47c0 1.95-1.623 3.53-3.624 3.53zM16.55 2.233a.596.596 0 0 0-.604-.588h-4.893a.596.596 0 0 0-.604.588v1.118h6.101zm8.698 4.53c0-.974-.811-1.765-1.812-1.765H3.564c-1.001 0-1.812.79-1.812 1.765v11.765c0 .974.81 1.764 1.812 1.764h19.872c1 0 1.812-.79 1.812-1.764zm-7.701 7.026h-2.582v2.481a.563.563 0 0 1-.574.552h-1.722a.563.563 0 0 1-.573-.552V13.79H9.513a.563.563 0 0 1-.574-.552v-1.654c0-.305.257-.552.574-.552h2.583V8.55c0-.305.256-.551.573-.551h1.722c.317 0 .574.246.574.55v2.482h2.582c.317 0 .574.247.574.552v1.654a.563.563 0 0 1-.574.552z"/></g></g></svg>