<svg xmlns="http://www.w3.org/2000/svg" width="17" height="15" viewBox="0 0 17 15"><g><g><path fill="#707070" d="M16.225 11.411H3.97a.837.837 0 0 1-.277-.048c-1.072-.116-1.903-.946-1.903-1.953V2.786c0-.361-.323-.656-.72-.656H.673v-.002C.29 2.094-.011 1.8-.011 1.442c0-.358.3-.652.685-.685V.753h.54c1.195 0 2.162.881 2.162 1.968v6.624c0 .362.323.656.721.656h12.128c.428 0 .774.316.774.705 0 .39-.346.705-.774.705zm-1.496-2.296H5.755c-.796 0-1.441-.587-1.441-1.311v-4.1c0-.723.645-1.31 1.441-1.31h2.631v-.362c0-.543.484-.983 1.081-.983h1.586c.597 0 1.081.44 1.081.983v.361h2.595c.796 0 1.442.588 1.442 1.312v4.099c0 .724-.646 1.311-1.442 1.311zm-3.388-7.083c0-.181-.16-.327-.36-.327H9.467c-.199 0-.36.146-.36.327v.361h2.234zm-5.298 9.772c.936 0 1.694.69 1.694 1.542 0 .851-.758 1.54-1.694 1.54-.935 0-1.693-.689-1.693-1.54 0-.851.758-1.542 1.693-1.542zm8.47 0c.935 0 1.694.69 1.694 1.542 0 .851-.759 1.54-1.694 1.54-.936 0-1.694-.689-1.694-1.54 0-.851.758-1.542 1.694-1.542z"/></g></g></svg>