<svg xmlns="http://www.w3.org/2000/svg" width="11" height="18" viewBox="0 0 11 18"><g><g><path fill="#707070" d="M7.996 17.998c-1.533 0-2.776-1.14-2.776-2.547 0-1.407 1.243-2.548 2.776-2.548 1.534 0 2.776 1.14 2.776 2.548 0 1.407-1.242 2.547-2.776 2.547zM3.85 15.434c0 .29.035.572.102.844H2.841c-1.594 0-2.885-1.185-2.885-2.647V7.576c0-1.462 1.291-2.647 2.885-2.647H7.25V.727c0-.402.325-.729.727-.729h.014c.402 0 .727.327.727.729v4.982a.73.73 0 0 1 0 .037v5.921a4.554 4.554 0 0 0-.704-.054c-2.3 0-4.164 1.71-4.164 3.821z"/></g></g></svg>