<svg xmlns="http://www.w3.org/2000/svg" width="35" height="21" viewBox="0 0 35 21"><g><g><path fill="#2d2d2d" d="M33.337 16.193h-1.415C31.877 18.855 29.737 21 27.102 21c-2.635 0-4.775-2.145-4.82-4.807h-9.481C12.756 18.855 10.616 21 7.98 21c-2.635 0-4.775-2.145-4.82-4.807H1.663A1.675 1.675 0 0 1 0 14.506V8.181c0-.932.744-1.687 1.663-1.687h1.58l.034.036 3.54-4.843C7.337.818 8.31 0 9.227 0h13.469c.918 0 1.933.924 2.41 1.687l3.566 4.878 3.834.94C34.06 7.94 35 8.724 35 10.12v4.386c0 .931-.744 1.687-1.663 1.687zM7.981 18.638c1.331 0 2.41-1.095 2.41-2.445 0-1.351-1.079-2.446-2.41-2.446-1.332 0-2.411 1.095-2.411 2.446 0 1.35 1.08 2.445 2.41 2.445zm6.318-15.433H9.56L5.986 8.096h8.313zm7.981 0h-4.739v4.891h8.314zm4.822 10.542c-1.332 0-2.41 1.095-2.41 2.446 0 1.35 1.078 2.445 2.41 2.445s2.41-1.095 2.41-2.445c0-1.351-1.078-2.446-2.41-2.446z"/></g></g></svg>