<svg xmlns="http://www.w3.org/2000/svg" width="36" height="28" viewBox="0 0 36 28"><g><g><path fill="#2d2d2d" d="M35.997 27.614s.023.382-.381.382H33.14s-.286-.045-.286-.382v-2.58s-.16-1.625-1.524-1.625c-1.363 0-1.238 1.625-1.238 1.625v2.58s.036.382-.38.382H27.14s-.38.041-.38-.382v-3.058s-.144-1.529-1.62-1.529c-1.476 0-1.523 1.529-1.523 1.529v3.058s.03.382-.381.382h-3.048s-.38.041-.38-.382v-2.962s-.084-1.72-1.81-1.72-1.81 1.815-1.81 1.815v2.867s0 .382-.285.382h-3.047s-.477.03-.477-.382v-2.962s.024-1.625-1.428-1.625-1.619 1.529-1.619 1.529v3.058s.024.382-.38.382H6.38S6 28.037 6 27.614v-2.676s-.101-1.529-1.333-1.529-1.429 1.72-1.429 1.72v2.485s.012.382-.38.382H.38S0 28.043 0 27.614V6.592C1.37 3.458 6.894.228 14.094-.001c.015 0 1.143.994 1.809 2.293.595 1.013.571 1.337.571 1.337s.39 1.466 1.62 2.294c1.23.828 1.587 1.56 1.618 2.389.04.645.19 1.05.19 1.05s.088.439.382.479c.293.04 13.665.167 15.713 5.542.003 0 0 12.23 0 12.23zM5.999 8.885s-.09-1.146-.952-1.146c-1.899 0-1.81 2.484-1.81 2.484v2.484s-.038.158.19.096C3.658 12.74 6 12.038 6 12.038zm0 8.217s.012-1.433-1.143-1.433c-1.625 0-1.619 2.007-1.619 2.007v2.962s-.02.236.19.191C3.64 20.785 6 20.351 6 20.351zm6.38-9.459s-.059-1.529-1.237-1.529c-1.738 0-1.81 2.007-1.81 2.007v3.057s-.02.24.19.191c.28-.053 2.858-.477 2.858-.477zm0 8.504s-.186-1.433-1.428-1.433c-1.625 0-1.619 2.197-1.619 2.197v2.963s-.02.235.19.19c.212-.044 2.858-.382 2.858-.382zm7.524 0s-.08-1.72-1.81-1.72-1.904 1.72-1.904 1.72V19.3s-.045.287.285.287h3.143s.286.024.286-.287v-3.153zm6.854 3.722v-2.96s.006-2.195-1.618-2.195c-1.24 0-1.427 1.432-1.427 1.432v3.531s2.644.338 2.855.383c.211.044.19-.191.19-.191zm6.091.763v-2.96s.006-2.004-1.618-2.004c-1.154 0-1.142 1.432-1.142 1.432v3.246s2.359.433 2.57.477c.21.045.19-.191.19-.191z"/></g></g></svg>