<svg xmlns="http://www.w3.org/2000/svg" width="19" height="19" viewBox="0 0 19 19"><g><g><path fill="#2d2d2d" d="M17.112 14.867c-2.088 3.223-4.888 3.371-4.888 3.371s-.968-.019-.81-1.01c.157-.99.727-2.126-.037-4.433 1-.6 1.672-1.704 1.672-2.968 0-.346-.052-.68-.145-.997l.014-.036s2.378-.507 3.609.035c1.23.542 2.832 1.67.585 6.038zM15.105 4.586c-.922.356-2.177.424-3.765 2.253a3.367 3.367 0 0 0-4.178.641c-.043-.049-1.62-1.85-1.77-3.184-.152-1.351.01-3.32 4.857-3.533 3.79.222 5.314 2.607 5.314 2.607s.466.858-.458 1.216zm-6.18 8.609l.01.014s-.756 2.34-1.834 3.15-2.841 1.652-5.45-2.505c-1.71-3.445-.436-5.977-.436-5.977s.5-.84 1.268-.206c.762.63 1.446 1.69 3.767 2.176.01 1.643 1.152 3.013 2.675 3.348zM7.22 9.827c0-1.359 1.087-2.461 2.428-2.461s2.428 1.102 2.428 2.461c0 1.36-1.087 2.462-2.428 2.462s-2.428-1.102-2.428-2.462z"/></g></g></svg>