<svg xmlns="http://www.w3.org/2000/svg" width="23" height="15" viewBox="0 0 23 15"><g><g><path fill="#2d2d2d" d="M0 15V0h23v15zm10.723-3.241c.182.176.44.264.773.264.324 0 .578-.09.76-.27.182-.18.274-.427.274-.74 0-.325-.09-.574-.27-.749-.18-.174-.436-.261-.764-.261-.341 0-.6.085-.779.255-.178.17-.267.422-.267.755 0 .321.09.57.273.746zm3.07-8.12c-.482-.393-1.13-.59-1.947-.59a5.66 5.66 0 0 0-2.81.744l.647 1.301c.76-.389 1.438-.582 2.032-.582.341 0 .607.067.797.202.19.134.285.33.285.588 0 .23-.066.438-.2.624-.132.186-.406.428-.822.725-.432.317-.73.616-.892.897a1.951 1.951 0 0 0-.243.993v.44h1.575v-.357c0-.238.05-.43.151-.577.101-.146.342-.36.722-.641.555-.396.931-.753 1.13-1.07.198-.317.297-.693.297-1.13 0-.653-.241-1.176-.722-1.568z"/></g></g></svg>