<svg xmlns="http://www.w3.org/2000/svg" width="19" height="17" viewBox="0 0 19 17"><g><g><path fill="#2d2d2d" d="M17.517 13.574H1.444c.062-4.01 3.355-7.242 7.41-7.242h5.699V6.18a2.764 2.764 0 0 0-2.774-2.754H5.13a1.439 1.439 0 0 1-1.444-1.433v-.038c0-.791.647-1.433 1.444-1.433h6.498c3.253 0 5.89 2.617 5.89 5.846zM9.119 9.953c-.608 0-1.102.49-1.102 1.094 0 .604.494 1.094 1.102 1.094.609 0 1.102-.49 1.102-1.094 0-.604-.493-1.094-1.102-1.094zm4.37 0c-.609 0-1.102.49-1.102 1.094 0 .604.493 1.094 1.102 1.094.609 0 1.102-.49 1.102-1.094 0-.604-.493-1.094-1.102-1.094zM1.484 14.999h16.032a.734.734 0 0 1 0 1.469H1.484a.734.734 0 1 1 0-1.469z"/></g></g></svg>