<svg xmlns="http://www.w3.org/2000/svg" width="19" height="13" viewBox="0 0 19 13"><g><g><path fill="#2d2d2d" d="M17.37 9.48a.864.864 0 0 1-.87-.86v1.763c0 .474-.39.859-.87.859a.864.864 0 0 1-.868-.859v1.718c0 .474-.39.858-.87.858a.864.864 0 0 1-.87-.858V8.62H5.977v3.48c0 .474-.39.858-.87.858a.864.864 0 0 1-.87-.858v-1.718c0 .474-.389.859-.869.859a.864.864 0 0 1-.87-.859V8.621c0 .474-.388.858-.869.858a.864.864 0 0 1-.869-.858V5.14c0-.474.39-.86.87-.86s.869.386.869.86V3.424c0-.475.389-.86.87-.86.48 0 .869.385.869.86V1.66c0-.475.39-.858.87-.858s.869.383.869.858v3.48h7.047v-3.48c0-.475.389-.859.869-.859s.87.384.87.859v1.763c0-.475.388-.86.869-.86.48 0 .87.385.87.86V5.14c0-.474.389-.86.869-.86s.869.386.869.86v3.48c0 .474-.39.858-.87.858z"/></g></g></svg>