<svg xmlns="http://www.w3.org/2000/svg" width="19" height="13" viewBox="0 0 19 13"><g><g><path fill="#1390e8" d="M17.804 5.293c-.11 0-.21-.041-.286-.107l-.016.015a.767.767 0 0 0-1.215-.115l.004.004a1.654 1.654 0 0 1-2.488-.062l.017-.017a.434.434 0 0 1 .61-.61l.013-.015a.766.766 0 0 0 1.214.118l-.002-.002.032-.033a.316.316 0 0 0 .008-.009h.001c.3-.3.716-.486 1.175-.486.51 0 .967.23 1.271.59l-.01.012a.434.434 0 0 1-.328.717zm0-2.472c-.11 0-.21-.04-.286-.108l-.016.016a.768.768 0 0 0-1.215-.115l.004.004a1.654 1.654 0 0 1-2.488-.062l.017-.017a.434.434 0 0 1 .61-.61l.013-.014a.766.766 0 0 0 1.214.118l-.002-.002.032-.034c.003-.003.006-.005.008-.01h.001v.001c.3-.3.716-.485 1.175-.485.51 0 .967.23 1.271.59l-.01.011a.434.434 0 0 1-.328.717zm-6.156 4.49L4.863 8.354l-.087.488.448.08a.619.619 0 0 1 .501.719l-.22 1.215a.621.621 0 0 1-.724.499l-.439-.079-.24 1.343a.414.414 0 0 1-.48.333l-2.287-.395A.412.412 0 0 1 1 12.08l.75-4.205A3.842 3.842 0 0 1 0 4.654C0 2.527 1.734.802 3.875.802l7.773 1.113c.229 0 .414.184.414.412V6.9a.413.413 0 0 1-.414.411zM4.02 3.027c-.939 0-1.7.72-1.7 1.607s.761 1.606 1.7 1.606 1.7-.72 1.7-1.606c0-.888-.761-1.607-1.7-1.607zm10.136 3.749c.104 0 .199.036.273.096l.014-.014a.765.765 0 0 0 1.214.118l-.002-.002.032-.033.008-.009h.001c.3-.3.716-.486 1.175-.486.51 0 .967.23 1.271.59l-.01.012a.434.434 0 0 1-.614.61l-.016.015a.767.767 0 0 0-1.215-.115l.004.004a1.653 1.653 0 0 1-2.488-.063l.017-.016a.434.434 0 0 1 .336-.707z"/></g></g></svg>