<svg xmlns="http://www.w3.org/2000/svg" width="19" height="19" viewBox="0 0 19 19"><g><g><path fill="#2d2d2d" d="M17.592 18.239H1.406a.647.647 0 0 1-.647-.648V1.411c0-.359.29-.648.647-.648h16.186c.357 0 .647.29.647.647v16.181c0 .358-.29.648-.647.648zm-.966-16.127L2.386 2.11c-.302 0-.278-.026-.278.275v14.23c0 .3-.024.275.278.275l14.24.002c.302 0 .278.025.278-.276V2.388c0-.301.024-.276-.278-.276zm-3.809 13.43a2.724 2.724 0 1 1-.001-5.448 2.724 2.724 0 0 1 .001 5.448zm0-4.1a1.375 1.375 0 1 0 0 2.752 1.375 1.375 0 0 0 0-2.751zm0-2.48a2.724 2.724 0 1 1 0-5.45 2.724 2.724 0 0 1 0 5.45zm0-4.1a1.376 1.376 0 1 0 0 2.752 1.376 1.376 0 0 0 0-2.752zm-6.636 10.68a2.724 2.724 0 1 1 0-5.448 2.724 2.724 0 0 1 0 5.448zm0-4.1a1.375 1.375 0 1 0 0 2.752 1.375 1.375 0 0 0 0-2.751zm0-2.48a2.724 2.724 0 1 1 0-5.45 2.724 2.724 0 0 1 0 5.45z"/></g></g></svg>