<svg xmlns="http://www.w3.org/2000/svg" width="20" height="28" viewBox="0 0 20 28"><g><g><path d="M18.56 28H1.439C.644 28 0 27.381 0 26.62V5.792c0-.761.644-1.379 1.438-1.379h17.123c.794 0 1.439.618 1.439 1.38V26.62c0 .762-.645 1.38-1.44 1.38zM7.087 25.584h5.9a.599.599 0 0 0 .61-.586.6.6 0 0 0-.61-.586h-5.9a.6.6 0 0 0-.612.586c0 .324.274.586.612.586zM5.072 23.38H15a.6.6 0 0 0 .611-.586.6.6 0 0 0-.611-.587H5.072a.6.6 0 0 0-.612.587c0 .323.274.586.612.586zm4.964-16.277c-3.676 0-6.655 2.857-6.655 6.38 0 3.523 2.98 6.38 6.655 6.38 3.675 0 6.654-2.857 6.654-6.38 0-3.523-2.979-6.38-6.654-6.38zm2.662 10.933c.803-1.21 1.325-2.619 1.447-3.967h1.292c-.19 1.708-1.246 3.167-2.739 3.967zm.09-8.987c1.425.798 2.435 2.204 2.64 3.848h-1.282c-.114-1.303-.603-2.665-1.359-3.848zM7.23 12.896c.178-1.57 1.002-3.285 2.193-4.466v3.018h1.223V8.404c1.196 1.185 2.022 2.912 2.197 4.492zm-2.516 0c.201-1.61 1.172-2.992 2.55-3.798-.742 1.17-1.224 2.513-1.339 3.798zm2.62 5.078c-1.435-.811-2.444-2.24-2.628-3.906h1.219c.119 1.325.626 2.71 1.409 3.906zm2.09-3.906v4.535c-1.21-1.198-2.04-2.946-2.2-4.535zm1.222 4.54v-4.54h2.202c-.164 1.593-.994 3.343-2.202 4.54zM0 4.126v-.609c0-.761.644-1.202 1.438-1.379L17.05 0c.795 0 1.439.617 1.439 1.378v2.138H1.439c-.497 0-1.075.242-1.44.609z"/></g></g></svg>