<svg xmlns="http://www.w3.org/2000/svg" width="11" height="19" viewBox="0 0 11 19"><g><g><path fill="#1390e8" d="M.559 9.01V1.654c0-.492.385-.891.86-.891h8.16c.475 0 .86.4.86.891V9.01zm6.675-4.532a.569.569 0 0 0 .197-.761.526.526 0 0 0-.734-.204l-.682.408v-.817a.547.547 0 0 0-.537-.558.547.547 0 0 0-.537.558v.817l-.683-.408a.526.526 0 0 0-.733.204.569.569 0 0 0 .196.76l.683.41-.683.41a.568.568 0 0 0-.197.76.526.526 0 0 0 .734.204l.683-.409v.818c0 .308.24.557.537.557.296 0 .537-.25.537-.557v-.818l.682.409a.526.526 0 0 0 .734-.204.568.568 0 0 0-.197-.76l-.682-.41zm3.205 5.558v7.311c0 .493-.385.892-.86.892H1.42c-.475 0-.86-.4-.86-.892v-7.311zm-8.42 3.098c0 .283.222.513.495.513.272 0 .494-.23.494-.513v-1.07a.504.504 0 0 0-.494-.513.504.504 0 0 0-.495.513z"/></g></g></svg>