<svg xmlns="http://www.w3.org/2000/svg" width="18" height="17" viewBox="0 0 18 17"><g><g><path fill="#2d2d2d" d="M16.849 15.491h-1.066v.84a.147.147 0 0 1-.146.148h-2.762a.147.147 0 0 1-.145-.148v-.84H5.557v.84a.147.147 0 0 1-.145.148H2.649a.147.147 0 0 1-.145-.148v-.84H1.389a.636.636 0 0 1-.63-.642V1.165c0-.355.282-.642.63-.642h15.46c.348 0 .63.287.63.642V14.85a.636.636 0 0 1-.63.642zm-.727-13.338a.245.245 0 0 0-.242-.247H2.358a.244.244 0 0 0-.242.247v11.708c0 .136.108.246.242.246H15.88c.134 0 .242-.11.242-.246zm-.873 11.214H2.99a.147.147 0 0 1-.146-.148V2.795c0-.082.065-.148.145-.148H15.25c.08 0 .146.066.146.148v2.124h-.751a.71.71 0 0 0-.703.717.71.71 0 0 0 .703.716h.751v3.36h-.751a.71.71 0 0 0-.703.715.71.71 0 0 0 .703.717h.751v2.075a.147.147 0 0 1-.146.148zM9.143 5.61c-.803 0-1.454.664-1.454 1.482 0 .54.284 1.013.709 1.272l-.418 1.94s0 .098.097.098h2.084s.145.028.145-.099c0-.111-.331-1.568-.416-1.94.424-.259.707-.731.707-1.271 0-.818-.65-1.482-1.454-1.482z"/></g></g></svg>