<svg xmlns="http://www.w3.org/2000/svg" width="19" height="19" viewBox="0 0 19 19"><g><g><path fill="#1390e8" d="M18.787 18.999h-1.23a.215.215 0 0 1-.212-.217v-9.88H1.653v9.88c0 .12-.095.217-.212.217H.211a.215.215 0 0 1-.212-.217V7.43c0-.12.095-.216.212-.216h.51c0-.192.15-.347.338-.347h.806V3.14c0-.014.003-.028.007-.041.083-1.079.939-1.936 2.002-1.992a.133.133 0 0 1 .027-.003h.848c.014 0 .027.003.04.007.305.024.592.114.847.257l.528-.555a.167.167 0 0 1 .24 0l1.143.65a.175.175 0 0 1 0 .244l-.507.541a.767.767 0 0 1 .084.35.75.75 0 0 1-.742.759.727.727 0 0 1-.315-.073l-.503.536a.166.166 0 0 1-.24 0l-.72-1.125a.175.175 0 0 1 0-.245l.416-.436H3.901c-.632 0-1.145.524-1.145 1.17v3.683h1.908v-.13c0-.072.057-.13.127-.13h.34c.07 0 .127.058.127.13v.13h.975c.188 0 .34.155.34.347h12.214c.117 0 .212.097.212.216v11.353c0 .12-.095.217-.212.217z"/></g></g></svg>