<svg xmlns="http://www.w3.org/2000/svg" width="16" height="19" viewBox="0 0 16 19"><g><g><path fill="#2d2d2d" d="M14.902 18.239H1.336a.807.807 0 0 1-.817-.796V3.669c0-.44.366-.796.817-.796h1.757c.158 0 .286.124.286.278v.677a.282.282 0 0 1-.286.279H1.95a.202.202 0 0 0-.204.199v12.58c0 .11.091.198.204.198h12.38a.201.201 0 0 0 .205-.199V4.305a.202.202 0 0 0-.204-.198h-1.226a.282.282 0 0 1-.286-.28v-.676c0-.154.128-.278.286-.278h1.798c.451 0 .817.356.817.796v13.774c0 .44-.366.796-.817.796zM7.363 6.018h5.557c.192 0 .348.151.348.338a.343.343 0 0 1-.348.338H7.363a.343.343 0 0 1-.347-.338c0-.187.155-.338.347-.338zm0 1.273h3.555c.192 0 .347.152.347.339a.343.343 0 0 1-.347.338H7.363a.343.343 0 0 1-.347-.338c0-.187.155-.339.347-.339zm0 2.429h5.557c.192 0 .348.151.348.338a.343.343 0 0 1-.348.338H7.363a.343.343 0 0 1-.347-.338c0-.187.155-.338.347-.338zm0 1.274h3.555c.192 0 .347.151.347.338a.343.343 0 0 1-.347.338H7.363a.343.343 0 0 1-.347-.338c0-.187.155-.338.347-.338zm0 3.701h3.555c.192 0 .347.152.347.34a.343.343 0 0 1-.347.338H7.363a.343.343 0 0 1-.347-.339c0-.187.155-.339.347-.339zm0-1.273h5.557c.192 0 .348.151.348.338a.343.343 0 0 1-.348.339H7.363a.343.343 0 0 1-.347-.339c0-.187.155-.338.347-.338zm3.984-8.678H4.85a.726.726 0 0 1-.735-.717V2.554c0-.395.329-.716.735-.716h.871A1.652 1.652 0 0 1 7.281.763h1.676c.72 0 1.333.449 1.56 1.075h.83c.407 0 .735.32.735.716v1.473a.726.726 0 0 1-.735.717zM8.139 1.28a.746.746 0 0 0-.756.736c0 .406.339.736.756.736.418 0 .756-.33.756-.736a.746.746 0 0 0-.756-.736zM3.166 14.009a.455.455 0 0 1 .633 0l.441.43 1.038-1.01a.451.451 0 0 1 .627 0 .425.425 0 0 1 0 .61l-1.278 1.246a.38.38 0 0 1-.044.037.455.455 0 0 1-.665.035l-.752-.732a.428.428 0 0 1 0-.616zm0-3.702a.455.455 0 0 1 .633 0l.441.43 1.038-1.011a.453.453 0 0 1 .627 0 .426.426 0 0 1 0 .612l-1.278 1.245a.42.42 0 0 1-.044.037.455.455 0 0 1-.665.035l-.752-.732a.428.428 0 0 1 0-.616zm2.112-4.283a.452.452 0 0 1 .627 0 .425.425 0 0 1 0 .611L4.627 7.881a.38.38 0 0 1-.044.037.455.455 0 0 1-.665.035l-.752-.733a.427.427 0 0 1 0-.615.455.455 0 0 1 .633 0l.441.43z"/></g></g></svg>