<svg xmlns="http://www.w3.org/2000/svg" width="19" height="19" viewBox="0 0 19 19"><g><g><path fill="#2d2d2d" d="M17.052 18.239H1.947c-.656 0-1.188-.53-1.188-1.184V6.87c0-.654.532-1.184 1.188-1.184h6.437l-4.4-4.354A.774.774 0 0 1 3.981.231a.791.791 0 0 1 1.113 0l4.418 4.371L13.884.247a.786.786 0 0 1 1.109.001.78.78 0 0 1 0 1.106l-4.35 4.333h6.409c.655 0 1.187.53 1.187 1.184v10.184c0 .654-.532 1.184-1.187 1.184zM14.439 7.487a.142.142 0 0 0-.142-.142H2.517a.142.142 0 0 0-.143.142v9.047c0 .078.064.142.143.142h11.78a.142.142 0 0 0 .142-.142zm1.876 1.326a.83.83 0 1 0 0 1.658.83.83 0 1 0 0-1.658zm0 2.32a.83.83 0 1 0-.002 1.661.83.83 0 0 0 .002-1.66zm0 2.37a.83.83 0 0 0 0 1.658.83.83 0 1 0 0-1.659z"/></g></g></svg>