<svg xmlns="http://www.w3.org/2000/svg" width="34" height="34" viewBox="0 0 34 34"><g><g><path fill="#1c80d4" d="M32.632 17.586l.49 1.672-1.418-.988-1.42.988.491-1.672-1.367-1.06 1.722-.045.574-1.644.573 1.644 1.722.044zm-1.464-5.796l-1.419-.989-1.418.99.49-1.672-1.367-1.062 1.722-.044.573-1.644.574 1.644 1.722.044-1.367 1.062zm-5.374-5.405l-1.418-.988-1.418.988.49-1.671-1.367-1.061 1.721-.045.574-1.644.574 1.644 1.721.045-1.367 1.06zM18.37 4.42l-1.418-.989-1.42.99.492-1.673-1.368-1.06 1.722-.045.574-1.644.574 1.644 1.721.044-1.367 1.061zm-7.327 1.965l-1.419-.988-1.419.988.49-1.671-1.366-1.061 1.721-.045.574-1.644.574 1.644 1.721.045-1.366 1.06zM5.668 11.79l-1.418-.989-1.42.99.491-1.672-1.367-1.062 1.722-.044.574-1.644.573 1.644 1.722.044-1.367 1.062zm-2.799 4.691l1.722.044-1.367 1.061.49 1.672-1.418-.988-1.42.988.491-1.672L0 16.526l1.722-.045.574-1.644zm.807 7.37l.574-1.644.573 1.644 1.722.045-1.367 1.06.49 1.672-1.418-.988-1.42.988.491-1.672-1.367-1.06zm5.373 5.405l.574-1.645.574 1.645 1.721.044-1.366 1.06.49 1.673-1.419-.988-1.419.988.49-1.672-1.366-1.06zm7.328 1.965l.574-1.644.574 1.644 1.721.045-1.367 1.06.49 1.672-1.418-.989-1.42.99.492-1.673-1.368-1.06zm7.425-1.965l.574-1.645.574 1.645 1.721.044-1.367 1.06.49 1.673-1.418-.988-1.418.988.49-1.672-1.367-1.06zm4.284-11.961c0 5.547-4.305 10.085-9.756 10.465V23.9a6.651 6.651 0 0 0 5.628-4.685H18.33v-3.843h5.628a6.65 6.65 0 0 0-5.628-4.683V6.83c5.451.38 9.756 4.918 9.756 10.466zm-21.878 0c0-5.548 4.306-10.087 9.757-10.467v3.861a6.65 6.65 0 0 0-5.629 4.683h5.629v3.843h-5.629a6.651 6.651 0 0 0 5.629 4.684v3.861c-5.451-.38-9.757-4.918-9.757-10.465zm22.968 6.556l.573-1.644.574 1.644 1.722.045-1.367 1.06.49 1.672-1.419-.988-1.418.988.49-1.672-1.367-1.06z"/></g></g></svg>