<svg xmlns="http://www.w3.org/2000/svg" width="13" height="19" viewBox="0 0 13 19"><g><g><path fill="#1390e8" d="M.04 3.054V1.54c0-.43.357-.777.799-.777h11.32c.442 0 .8.348.8.777v1.514zm4-1.553H1.28c-.222 0-.4.174-.4.388 0 .214.178.389.4.389h2.76c.22 0 .4-.175.4-.389a.394.394 0 0 0-.4-.388zm8.92 2.02v13.94c0 .43-.36.778-.801.778H.839a.789.789 0 0 1-.8-.777V3.52zM6.478 14.782c2.408 0 4.36-1.895 4.36-4.233 0-2.338-1.952-4.233-4.36-4.233-2.408 0-4.36 1.895-4.36 4.233 0 2.338 1.952 4.233 4.36 4.233zm0-7.96c2.12 0 3.84 1.668 3.84 3.727 0 2.06-1.72 3.729-3.84 3.729s-3.84-1.67-3.84-3.729 1.72-3.728 3.84-3.728zm0 6.873c1.336 0 2.484-.786 2.979-1.907a1.122 1.122 0 0 1-.099.004c-.64 0-1.16-.504-1.16-1.126 0-.622.52-1.126 1.16-1.126.066 0 .131.005.194.016-.428-1.25-1.642-2.152-3.074-2.152-1.79 0-3.24 1.408-3.24 3.145 0 1.738 1.45 3.146 3.24 3.146z"/></g></g></svg>