<svg xmlns="http://www.w3.org/2000/svg" width="19" height="15" viewBox="0 0 19 15"><g><g><path fill="#1390e8" d="M18.006 4.08c.146.196.233.436.233.695 0 .647-.537 1.171-1.199 1.171-.301 0-.576-.108-.787-.287l-.006.005A9.908 9.908 0 0 0 9.12 2.667a9.906 9.906 0 0 0-7.17 3.042l-.007-.006a1.165 1.165 0 0 1-.766.286C.526 5.99 0 5.455 0 4.797c0-.268.087-.515.234-.713l-.005-.005.044-.046c.042-.05.087-.097.136-.14A12.223 12.223 0 0 1 9.116.283c3.403 0 6.48 1.374 8.685 3.588.076.06.144.13.202.207l.003.002zM4.266 7.918A6.632 6.632 0 0 1 9.119 5.82c1.916 0 3.643.808 4.854 2.1l-.005.006c.18.205.29.474.29.768 0 .647-.528 1.171-1.178 1.171-.333 0-.633-.137-.847-.358l-.008.007a4.324 4.324 0 0 0-3.106-1.31c-1.24 0-2.358.52-3.146 1.352l-.009-.008c-.214.222-.515.36-.848.36-.65 0-1.178-.524-1.178-1.171 0-.316.127-.603.331-.814zm4.853 3.309c.97 0 1.756.782 1.756 1.747 0 .964-.787 1.745-1.756 1.745a1.75 1.75 0 0 1-1.755-1.745c0-.965.786-1.747 1.755-1.747z"/></g></g></svg>