<svg xmlns="http://www.w3.org/2000/svg" width="19" height="30" viewBox="0 0 19 30"><g><g><path fill="#2d2d2d" d="M16.712 10.908h-.227v2.584H14.04v-2.584h-.227c-1.032 0-2.288-1.362-2.288-2.422V4.413c0-2.12 1.988-4.414 3.737-4.414C16.925-.001 19 2.293 19 4.413v4.073c0 1.06-1.256 2.422-2.288 2.422zm-11.334 0H4.96v2.584H2.514v-2.584h-.419C.938 10.908 0 9.944 0 8.755v-.622c0-.126.018-.249.049-.365a.77.77 0 0 1-.05-.269V.824C0 .408.329.07.734.07c.405 0 .734.338.734.754v5.921h1.536V.825c0-.417.329-.755.734-.755.405 0 .733.338.733.754v5.921h1.537V.825c0-.417.328-.755.734-.755.405 0 .733.338.733.754V7.5a.77.77 0 0 1-.049.269c.031.116.049.239.049.365v.622c0 1.189-.938 2.153-2.096 2.153zm.35 18.015c0 .594-.47 1.077-1.048 1.077H2.794c-.579 0-1.048-.483-1.048-1.077V14.497h3.982zm11.525 0c0 .594-.469 1.077-1.047 1.077H14.32c-.58 0-1.048-.483-1.048-1.077V14.497h3.981z"/></g></g></svg>