<svg xmlns="http://www.w3.org/2000/svg" width="15" height="21" viewBox="0 0 15 21"><g><g><path fill="#2d2d2d" d="M10.539 6.18l4.03 3.578s.852.895.154 1.627c-.697.732-1.55 0-1.55 0l-2.014-1.79s-1.027-.548-.93.652c.019 1.057 0 .325 0 1.789 0 1.463 1.763 2.094 1.394 4.392-.31 1.932-1.86 4.066-1.86 4.066s-.697.793-1.24.325c-.542-.467 0-1.463 0-1.463s.233-.956.31-2.277c.078-1.322-.542-1.952-1.084-1.952-.543 0 .08.009-.465.009s-1.168.63-1.09 1.954c.078 1.323.311 2.28.311 2.28s.545.997 0 1.465c-.545.467-1.246-.326-1.246-.326s-1.557-2.137-1.868-4.071c-.37-2.3 1.402-2.93 1.402-4.396 0-1.466-.02-.733 0-1.791.097-1.2-.935-.652-.935-.652l-2.024 1.792s-.857.732-1.557 0c-.701-.733.156-1.628.156-1.628L4.48 6.18s.7-.813 1.253-.813c.978 0 .804.65 1.705.65.64 0 .872-.65 1.705-.65.658 0 1.395.813 1.395.813zM7.422 0c1.372 0 2.484 1.16 2.484 2.593 0 1.432-1.112 2.594-2.484 2.594-1.372 0-2.485-1.162-2.485-2.594S6.05 0 7.422 0z"/></g></g></svg>