<svg xmlns="http://www.w3.org/2000/svg" width="11" height="27" viewBox="0 0 11 27"><g><g><path fill="#2d2d2d" d="M9.31 18.745l-.674 6.867c0 .765-.61 1.387-1.364 1.387H3.818a1.376 1.376 0 0 1-1.364-1.387l-.674-6.855C.779 18.646 0 17.783 0 16.735V8.783c0-1.124.895-2.034 2-2.034.932.055 1.097.205 1.784.832.818.906 2.509.912 3.34 0 .795-.821 1.393-.832 1.875-.832 1.105 0 2 .91 2 2.034v7.952a2.024 2.024 0 0 1-1.688 2.01zM5.546 6.286c-1.707 0-3.091-1.407-3.091-3.143 0-1.737 1.384-3.144 3.091-3.144 1.707 0 3.09 1.407 3.09 3.144 0 1.736-1.383 3.143-3.09 3.143z"/></g></g></svg>