<svg xmlns="http://www.w3.org/2000/svg" width="35" height="24" viewBox="0 0 35 24"><g><g><path fill="#2d2d2d" d="M34.997 15.673h-9.705v5.877c0 1.353-1.144 2.45-2.555 2.45h-9.453c-1.41 0-2.554-1.097-2.554-2.45V12.49c0-1.352 1.144-2.449 2.554-2.449h9.453c.273 0 .53.052.777.128l4.077-6.74zm-13.339-2.884h-7.295c-.423 0-.766.328-.766.734v6.993c0 .406.343.735.766.735h7.295c.424 0 .767-.329.767-.735v-4.843h-2.24l1.716-2.838a.78.78 0 0 0-.243-.046zM5.875 11.28C2.63 11.28 0 8.755 0 5.64 0 2.525 2.63 0 5.875 0c3.244 0 5.875 2.525 5.875 5.64 0 3.115-2.63 5.64-5.875 5.64z"/></g></g></svg>