<svg xmlns="http://www.w3.org/2000/svg" width="29" height="32" viewBox="0 0 29 32"><g><g><path fill="#2d2d2d" d="M27.454 19.802l-.31 1.828h-.85l-1.004-1.067-1.7.23-.464-.61.772-1.524-.772-1.37.386-.686 1.778.229 1.082-1.066h.773l.309 1.827 1.469.686.077.837zm-1.469-7.464c-1.067 0-1.932-.853-1.932-1.904 0-1.052.865-1.904 1.932-1.904 1.068 0 1.933.852 1.933 1.904 0 1.051-.865 1.904-1.933 1.904zM21.89 5.864h-.85l-1.005-1.066-1.7.229-.465-.61.773-1.523-.773-1.371.387-.686 1.778.23L21.116 0h.773l.309 1.828 1.469.685.077.838-1.546.685zm-6.802 4.57c-1.195 0-2.164-.955-2.164-2.132 0-1.178.969-2.133 2.164-2.133 1.195 0 2.164.955 2.164 2.133 0 1.177-.969 2.132-2.164 2.132zM14.12 4.19a.652.652 0 0 1-.657-.647c0-.358.294-.648.657-.648.362 0 .657.29.657.648a.652.652 0 0 1-.657.647zM11.01 17.378c-.423-.503-.64-1.026-.64-1.026s1.528-1.182 1.838-2.033l1.171.592s-1.037 1.77-2.37 2.467zm-.986-7.325a.652.652 0 0 1-.657-.647c0-.358.294-.648.657-.648.363 0 .657.29.657.648a.652.652 0 0 1-.657.647zm-2.59 2.209s-.712-.076-.772.457c-.061 4.097 8.059 11.13 10.59 12.11.411.148 2.315 1.215 2.73.251.265-1.176-.799-2.84-.799-2.84l1.083-.61s.682 1.117.927 2.36c.322 2.35-1.005 2.514-1.005 2.514L1.947 31.912s-.89.305-1.546-.229c-.657-.533-.31-1.675-.31-1.675L5.58 12.033s.322-1.104 1.855-1.066c1.34.102 3.014.99 3.014.99s-.55 1.136-.54 1.143c-.957-.667-2.474-.838-2.474-.838zm8.503 3.351c.342-.642.066-1.35.31-1.904.242-.555.772-1.066.772-1.066l.85.837s-.483.438-.463.99c.02.553-.041 1.445-.468 1.992-1.326 1.328-1.973 1.423-3.552 1.74.014-.006-.154-1.218-.154-1.218s2.12-.261 2.705-1.37zM14.623 11.5s-.044.98-.386 1.676c-.023 0-1.16-.381-1.16-.381s.265-.968.232-1.37zm5.66.733s-.975.287-1.305.527l-.626-1.141s.869-.479 1.65-.558c.011.018.28 1.172.28 1.172zm.06-6.14s-.226 2.03-1.16 3.198c-.592-.292-1.004-.685-1.004-.685s.914-1.688.85-2.59zm-4.406 15.156c-.695-.544-1.005-.838-1.005-.838s3.061-3.534 7.111-2.285a20.113 20.113 0 0 1-.463 1.066s-3.114-.837-5.643 2.057zm5.256-6.969c0-.357.294-.647.657-.647.363 0 .657.29.657.647a.652.652 0 0 1-.657.648.652.652 0 0 1-.657-.648zm.31-5.788c0-.358.294-.647.656-.647.363 0 .657.29.657.647a.652.652 0 0 1-.657.647.652.652 0 0 1-.657-.647z"/></g></g></svg>