<svg xmlns="http://www.w3.org/2000/svg" width="26" height="30" viewBox="0 0 26 30"><g><g><path fill="#2d2d2d" d="M23.827 30H2.173C.973 30 0 29 0 27.767l2.1-18.09c0-1.233.973-2.233 2.173-2.233h2.97V5.918C7.242 2.649 9.82 0 13 0c3.18 0 5.758 2.65 5.758 5.918v1.526h2.969c1.2 0 2.173 1 2.173 2.233l2.1 18.09C26 29 25.027 30 23.827 30zM8.655 10.794c-1.14 0-2.065.95-2.065 2.121 0 1.172.925 2.122 2.065 2.122s2.064-.95 2.064-2.122c0-1.171-.924-2.121-2.064-2.121zm8.002-4.876c0-2.076-1.637-3.76-3.657-3.76s-3.657 1.684-3.657 3.76v1.526h7.314zm.76 4.876c-1.14 0-2.063.95-2.063 2.121 0 1.172.924 2.122 2.064 2.122 1.14 0 2.064-.95 2.064-2.122 0-1.171-.924-2.121-2.064-2.121z"/></g></g></svg>